<?xml version="1.0" encoding="UTF-8" standalone="no"?>
<!-- Created with Digital by H.Neemann -->
<!-- created: Sun Sep 27 15:39:37 CEST 2026 -->

<svg
   xmlns:svg="http://www.w3.org/2000/svg"
   xmlns="http://www.w3.org/2000/svg"
   width="90.3mm"
   height="35.1mm"
   viewBox="20 83 602 234">
<g stroke-linecap="square">
<path d="M 100,100 L 300,100" stroke="#000000" stroke-width="4.0" fill="none"/>
<path d="M 100,300 L 300,300" stroke="#000000" stroke-width="4.0" fill="none"/>
<path d="M 100,200 L 140,200 L 180,200" stroke="#000000" stroke-width="4.0" fill="none"/>
<path d="M 140,200 L 140,260 L 300,260" stroke="#000000" stroke-width="4.0" fill="none"/>
<path d="M 220,200 L 260,200 L 260,140 L 300,140" stroke="#000000" stroke-width="4.0" fill="none"/>
<path d="M 360,120 L 400,120 L 400,180 L 440,180" stroke="#000000" stroke-width="4.0" fill="none"/>
<path d="M 360,280 L 400,280 L 400,220 L 440,220" stroke="#000000" stroke-width="4.0" fill="none"/>
<path d="M 500,200 L 560,200" stroke="#000000" stroke-width="4.0" fill="none"/>
<g>
<circle cx="140.0" cy="200.0" r="4.0" stroke="#000000" stroke-width="4.0" fill="#000000" />
</g>
<g>
<path d="M 69,85 L 99,85 L 99,115 L 69,115 Z" stroke="#000000" stroke-width="4.0" fill="none"/>
<circle cx="84.0" cy="100.0" r="9.0" stroke="#000000" stroke-width="4.0" fill="none" />
<text text-anchor="end" x="55.0" y="109.0" fill="#000000" style="font-size:24px"><tspan style="font-style:italic;">D0</tspan></text>
<circle cx="100.0" cy="100.0" r="2.0" stroke="#000000" stroke-width="4.0" fill="#000000" />
</g>
<g>
<path d="M 69,185 L 99,185 L 99,215 L 69,215 Z" stroke="#000000" stroke-width="4.0" fill="none"/>
<circle cx="84.0" cy="200.0" r="9.0" stroke="#000000" stroke-width="4.0" fill="none" />
<text text-anchor="end" x="55.0" y="209.0" fill="#000000" style="font-size:24px"><tspan style="font-style:italic;">S</tspan></text>
<circle cx="100.0" cy="200.0" r="2.0" stroke="#000000" stroke-width="4.0" fill="#000000" />
</g>
<g>
<path d="M 69,285 L 99,285 L 99,315 L 69,315 Z" stroke="#000000" stroke-width="4.0" fill="none"/>
<circle cx="84.0" cy="300.0" r="9.0" stroke="#000000" stroke-width="4.0" fill="none" />
<text text-anchor="end" x="55.0" y="309.0" fill="#000000" style="font-size:24px"><tspan style="font-style:italic;">D1</tspan></text>
<circle cx="100.0" cy="300.0" r="2.0" stroke="#000000" stroke-width="4.0" fill="#000000" />
</g>
<g>
<path d="M 181,190 L 199,190 L 199,210 L 181,210 Z" stroke="#000000" stroke-width="4.0" fill="none"/>
<circle cx="210.0" cy="200.0" r="9.0" stroke="#000000" stroke-width="4.0" fill="none" />
<circle cx="180.0" cy="200.0" r="2.0" stroke="#000000" stroke-width="4.0" fill="#000000" />
<circle cx="220.0" cy="200.0" r="2.0" stroke="#000000" stroke-width="4.0" fill="#000000" />
</g>
<g>
<path d="M 301,90 L 359,90 L 359,150 L 301,150 Z" stroke="#000000" stroke-width="4.0" fill="none"/>
<text text-anchor="middle" x="330.0" y="112.0" fill="#000000" style="font-size:24px">&amp;</text>
<circle cx="300.0" cy="100.0" r="2.0" stroke="#000000" stroke-width="4.0" fill="#000000" />
<circle cx="300.0" cy="140.0" r="2.0" stroke="#000000" stroke-width="4.0" fill="#000000" />
<circle cx="360.0" cy="120.0" r="2.0" stroke="#000000" stroke-width="4.0" fill="#000000" />
</g>
<g>
<path d="M 301,250 L 359,250 L 359,310 L 301,310 Z" stroke="#000000" stroke-width="4.0" fill="none"/>
<text text-anchor="middle" x="330.0" y="272.0" fill="#000000" style="font-size:24px">&amp;</text>
<circle cx="300.0" cy="260.0" r="2.0" stroke="#000000" stroke-width="4.0" fill="#000000" />
<circle cx="300.0" cy="300.0" r="2.0" stroke="#000000" stroke-width="4.0" fill="#000000" />
<circle cx="360.0" cy="280.0" r="2.0" stroke="#000000" stroke-width="4.0" fill="#000000" />
</g>
<g>
<path d="M 441,170 L 499,170 L 499,230 L 441,230 Z" stroke="#000000" stroke-width="4.0" fill="none"/>
<text text-anchor="middle" x="470.0" y="192.0" fill="#000000" style="font-size:24px">≥1</text>
<circle cx="440.0" cy="180.0" r="2.0" stroke="#000000" stroke-width="4.0" fill="#000000" />
<circle cx="440.0" cy="220.0" r="2.0" stroke="#000000" stroke-width="4.0" fill="#000000" />
<circle cx="500.0" cy="200.0" r="2.0" stroke="#000000" stroke-width="4.0" fill="#000000" />
</g>
<g>
<circle cx="576.0" cy="200.0" r="9.0" stroke="#000000" stroke-width="4.0" fill="none" />
<circle cx="576.0" cy="200.0" r="15.0" stroke="#000000" stroke-width="4.0" fill="none" />
<text text-anchor="start" x="605.0" y="209.0" fill="#000000" style="font-size:24px"><tspan style="font-style:italic;">Y</tspan></text>
<circle cx="560.0" cy="200.0" r="2.0" stroke="#000000" stroke-width="4.0" fill="#000000" />
</g>
<g>
</g>
</g>
</svg>